<svg width="228" height="12" viewBox="0 0 228 12" fill="none" xmlns="http://www.w3.org/2000/svg">
<path d="M10.2812 6.64062C9.90625 7.67188 8.73438 7.92188 7.32812 7.92188C5.65625 7.89844 4.23438 7.58594 4.25781 5.875V5.61719C4.23438 3.89062 5.65625 3.59375 7.32812 3.57031C8.73438 3.57031 9.89844 3.8125 10.2812 4.84375H14.4766C14.2188 1.30469 11.1094 0.242188 7.32812 0.234375C3.39062 0.25 0.140625 1.39062 0.15625 5.35938V6.125C0.140625 10.1016 3.39062 11.2422 7.32812 11.25C11.1094 11.25 14.2188 10.1875 14.4766 6.64062H10.2812ZM24.2719 0.234375C20.3188 0.242188 17.0844 1.38281 17.1 5.35938V6.125C17.0844 10.0938 20.3188 11.2422 24.2719 11.25C28.2172 11.2422 31.4516 10.0938 31.4359 6.125V5.35938C31.4359 1.39062 28.225 0.234375 24.2719 0.234375ZM27.3422 5.86719C27.3656 7.58594 25.9438 7.89844 24.2719 7.92188C22.5922 7.89844 21.1703 7.58594 21.1938 5.86719V5.60938C21.1703 3.89844 22.5922 3.58594 24.2719 3.5625C25.9438 3.58594 27.3656 3.89844 27.3422 5.60938V5.86719ZM44.5047 6.05469L39.8953 0.492188H34.2625V10.9922H38.3563V4.57812L43.9969 10.9922H48.6063V0.492188H44.5047V6.05469ZM62.8391 6.05469L58.2297 0.492188H52.5969V10.9922H56.6906V4.57812L62.3312 10.9922H66.9406V0.492188H62.8391V6.05469ZM70.9313 11.0078H83.2203V8.3125H75.025V6.96875H83.2203V4.53906H75.025V3.19531H83.2203V0.507812H70.9313V11.0078ZM96.1562 6.64062C95.7812 7.67188 94.6094 7.92188 93.2031 7.92188C91.5312 7.89844 90.1094 7.58594 90.1328 5.875V5.61719C90.1094 3.89062 91.5312 3.59375 93.2031 3.57031C94.6094 3.57031 95.7734 3.8125 96.1562 4.84375H100.352C100.094 1.30469 96.9844 0.242188 93.2031 0.234375C89.2656 0.25 86.0156 1.39062 86.0312 5.35938V6.125C86.0156 10.1016 89.2656 11.2422 93.2031 11.25C96.9844 11.25 100.094 10.1875 100.352 6.64062H96.1562ZM111.233 11.0078V3.83594H116.1V0.507812H102.272V3.83594H107.139V11.0078H111.233ZM143.941 7.15625L141.511 0.507812H136.902L134.464 7.15625L132.034 0.507812H127.425L132.034 11.0078H136.902L139.206 5.75781L141.511 11.0078H146.378L150.988 0.507812H146.378L143.941 7.15625ZM157.939 3.54688L159.377 6.64844H156.494L157.939 3.54688ZM149.869 11.0078H154.478L155.306 9.21094H160.564L161.392 11.0078H166.002L160.369 0.507812H155.502L149.869 11.0078ZM167.922 0.492188V10.9922H180.211V7.66406H172.016V0.492188H167.922ZM183.209 0.492188V10.9922H195.498V7.66406H187.303V0.492188H183.209ZM198.497 11.0078H210.786V8.3125H202.591V6.96875H210.786V4.53906H202.591V3.19531H210.786V0.507812H198.497V11.0078ZM222.636 11.0078V3.83594H227.503V0.507812H213.675V3.83594H218.542V11.0078H222.636Z" fill="url(#paint0_linear_59_517)"/>
<defs>
<linearGradient id="paint0_linear_59_517" x1="222.964" y1="6.00008" x2="-5.58811e-07" y2="6.00007" gradientUnits="userSpaceOnUse">
<stop stop-color="#9747FF"/>
<stop offset="1"/>
</linearGradient>
</defs>
</svg>
