<svg width="167" height="167" viewBox="0 0 167 167" fill="none" xmlns="http://www.w3.org/2000/svg">
<circle cx="83.5" cy="83.5" r="58.5" stroke="white" stroke-width="2"/>
<circle cx="83.5" cy="83.5" r="83.5" fill="white"/>
<path d="M24.1758 89.0088H38.001V85.9766H28.7812V84.4648H38.001V81.7314H28.7812V80.2197H38.001V77.1963H24.1758V89.0088ZM48.6744 80.6416L45.3609 77.1963H39.5953L45.7916 83.1025L39.5953 89.0088H45.3609L48.6744 85.5547L51.9879 89.0088H57.7447L51.5484 83.1025L57.7447 77.1963H51.9879L48.6744 80.6416ZM63.9094 82.6631V80.6504H69.5344C69.8068 80.6504 70.0441 80.7471 70.2375 80.9492C70.4396 81.1426 70.5363 81.3799 70.5363 81.6611C70.5363 81.9336 70.4396 82.1709 70.2375 82.373C70.0441 82.5664 69.8068 82.6631 69.5344 82.6631H63.9094ZM59.3039 77.1963V89.0088H63.9094V86.126H70.6857C73.1203 86.1611 75.1857 84.0957 75.1506 81.6611C75.1857 79.2178 73.1203 77.1699 70.6857 77.1963H59.3039ZM77.3074 77.1787V88.9912H91.1326V85.2471H81.9129V77.1787H77.3074ZM100.461 76.8887C96.0141 76.8975 92.3754 78.1807 92.393 82.6543V83.5156C92.3754 87.9805 96.0141 89.2725 100.461 89.2812C104.9 89.2725 108.538 87.9805 108.521 83.5156V82.6543C108.521 78.1895 104.909 76.8887 100.461 76.8887ZM103.915 83.2256C103.942 85.1592 102.342 85.5107 100.461 85.5371C98.5717 85.5107 96.9721 85.1592 96.9984 83.2256V82.9355C96.9721 81.0107 98.5717 80.6592 100.461 80.6328C102.342 80.6592 103.942 81.0107 103.915 82.9355V83.2256ZM110.801 77.1875V89H115.406V86.1172H119.52L121.743 89H126.647L124.072 85.6865C124.846 85.3262 125.47 84.7812 125.936 84.0693C126.41 83.3486 126.647 82.54 126.647 81.6523C126.683 79.209 124.617 77.1611 122.183 77.1875H110.801ZM121.022 80.6416C121.585 80.6416 122.033 81.0898 122.033 81.6523C122.033 81.9248 121.937 82.1621 121.734 82.3643C121.541 82.5576 121.304 82.6543 121.022 82.6543H115.406V80.6416H121.022ZM128.98 89.0088H142.805V85.9766H133.586V84.4648H142.805V81.7314H133.586V80.2197H142.805V77.1963H128.98V89.0088Z" fill="black"/>
</svg>
