<svg width="38" height="38" viewBox="0 0 38 38" fill="none" xmlns="http://www.w3.org/2000/svg">
<path d="M25.3333 19C25.3333 17.2517 24.7148 15.7591 23.4779 14.5221C22.2409 13.2852 20.7483 12.6667 19 12.6667C17.2517 12.6667 15.7591 13.2852 14.5221 14.5221C13.2852 15.7591 12.6667 17.2517 12.6667 19C12.6667 20.7483 13.2852 22.2409 14.5221 23.4779C15.7591 24.7148 17.2517 25.3333 19 25.3333C20.7483 25.3333 22.2409 24.7148 23.4779 23.4779C24.7148 22.2409 25.3333 20.7483 25.3333 19ZM28.7474 19C28.7474 21.7049 27.799 24.0056 25.9023 25.9023C24.0056 27.799 21.7049 28.7474 19 28.7474C16.2951 28.7474 13.9944 27.799 12.0977 25.9023C10.201 24.0056 9.2526 21.7049 9.2526 19C9.2526 16.2951 10.201 13.9944 12.0977 12.0977C13.9944 10.201 16.2951 9.2526 19 9.2526C21.7049 9.2526 24.0056 10.201 25.9023 12.0977C27.799 13.9944 28.7474 16.2951 28.7474 19ZM31.4193 8.85677C31.4193 9.48351 31.1966 10.0195 30.7513 10.4648C30.306 10.9102 29.77 11.1328 29.1432 11.1328C28.5165 11.1328 27.9805 10.9102 27.5352 10.4648C27.0898 10.0195 26.8672 9.48351 26.8672 8.85677C26.8672 8.23003 27.0898 7.69401 27.5352 7.2487C27.9805 6.80339 28.5165 6.58073 29.1432 6.58073C29.77 6.58073 30.306 6.80339 30.7513 7.2487C31.1966 7.69401 31.4193 8.23003 31.4193 8.85677ZM19 3.41406C18.8845 3.41406 18.2537 3.40994 17.1074 3.40169C15.9612 3.39345 15.0911 3.39345 14.4974 3.40169C13.9036 3.40994 13.1079 3.43468 12.11 3.47591C11.1122 3.51714 10.2628 3.59961 9.56185 3.72331C8.86089 3.84701 8.27127 3.99957 7.79297 4.18099C6.96832 4.51085 6.24262 4.98915 5.61589 5.61589C4.98915 6.24262 4.51085 6.96832 4.18099 7.79297C3.99957 8.27127 3.84701 8.86089 3.72331 9.56185C3.59961 10.2628 3.51714 11.1122 3.47591 12.11C3.43468 13.1079 3.40994 13.9036 3.40169 14.4974C3.39345 15.0911 3.39345 15.9612 3.40169 17.1074C3.40994 18.2537 3.41406 18.8845 3.41406 19C3.41406 19.1155 3.40994 19.7463 3.40169 20.8926C3.39345 22.0388 3.39345 22.9089 3.40169 23.5026C3.40994 24.0964 3.43468 24.8921 3.47591 25.89C3.51714 26.8878 3.59961 27.7372 3.72331 28.4382C3.84701 29.1391 3.99957 29.7287 4.18099 30.207C4.51085 31.0317 4.98915 31.7574 5.61589 32.3841C6.24262 33.0109 6.96832 33.4892 7.79297 33.819C8.27127 34.0004 8.86089 34.153 9.56185 34.2767C10.2628 34.4004 11.1122 34.4829 12.11 34.5241C13.1079 34.5653 13.9036 34.5901 14.4974 34.5983C15.0911 34.6066 15.9612 34.6066 17.1074 34.5983C18.2537 34.5901 18.8845 34.5859 19 34.5859C19.1155 34.5859 19.7463 34.5901 20.8926 34.5983C22.0388 34.6066 22.9089 34.6066 23.5026 34.5983C24.0964 34.5901 24.8921 34.5653 25.89 34.5241C26.8878 34.4829 27.7372 34.4004 28.4382 34.2767C29.1391 34.153 29.7287 34.0004 30.207 33.819C31.0317 33.4892 31.7574 33.0109 32.3841 32.3841C33.0109 31.7574 33.4892 31.0317 33.819 30.207C34.0004 29.7287 34.153 29.1391 34.2767 28.4382C34.4004 27.7372 34.4829 26.8878 34.5241 25.89C34.5653 24.8921 34.5901 24.0964 34.5983 23.5026C34.6066 22.9089 34.6066 22.0388 34.5983 20.8926C34.5901 19.7463 34.5859 19.1155 34.5859 19C34.5859 18.8845 34.5901 18.2537 34.5983 17.1074C34.6066 15.9612 34.6066 15.0911 34.5983 14.4974C34.5901 13.9036 34.5653 13.1079 34.5241 12.11C34.4829 11.1122 34.4004 10.2628 34.2767 9.56185C34.153 8.86089 34.0004 8.27127 33.819 7.79297C33.4892 6.96832 33.0109 6.24262 32.3841 5.61589C31.7574 4.98915 31.0317 4.51085 30.207 4.18099C29.7287 3.99957 29.1391 3.84701 28.4382 3.72331C27.7372 3.59961 26.8878 3.51714 25.89 3.47591C24.8921 3.43468 24.0964 3.40994 23.5026 3.40169C22.9089 3.39345 22.0388 3.39345 20.8926 3.40169C19.7463 3.40994 19.1155 3.41406 19 3.41406ZM38 19C38 22.7769 37.9588 25.3911 37.8763 26.8424C37.7114 30.273 36.6888 32.9284 34.8086 34.8086C32.9284 36.6888 30.273 37.7114 26.8424 37.8763C25.3911 37.9588 22.7769 38 19 38C15.2231 38 12.6089 37.9588 11.1576 37.8763C7.727 37.7114 5.07161 36.6888 3.19141 34.8086C1.3112 32.9284 0.288628 30.273 0.123698 26.8424C0.0412326 25.3911 0 22.7769 0 19C0 15.2231 0.0412326 12.6089 0.123698 11.1576C0.288628 7.727 1.3112 5.07161 3.19141 3.19141C5.07161 1.3112 7.727 0.288628 11.1576 0.123698C12.6089 0.0412326 15.2231 0 19 0C22.7769 0 25.3911 0.0412326 26.8424 0.123698C30.273 0.288628 32.9284 1.3112 34.8086 3.19141C36.6888 5.07161 37.7114 7.727 37.8763 11.1576C37.9588 12.6089 38 15.2231 38 19Z" fill="white"/>
</svg>
