<svg width="153" height="18" viewBox="0 0 153 18" fill="none" xmlns="http://www.w3.org/2000/svg">
<path d="M15.5977 9.13672C15.5977 10.7188 14.6953 12.0195 13.1016 12.0195H6.375V6.25391H13.1016C14.6953 6.25391 15.5977 7.54297 15.5977 9.13672ZM0.234375 1.26172V17.0117H14.25C18.5742 17.0703 21.7852 13.4141 21.75 9.13672C21.7852 4.83594 18.5742 1.20312 14.25 1.26172H0.234375ZM42.1992 5.67969C42.1992 2.38672 38.6367 0.863281 32.4609 0.863281C26.3555 0.863281 22.2188 1.91797 22.2188 7.16797H28.3711C28.3477 5.49219 30.3047 5.55078 32.707 5.51562C34.9219 5.50391 36.0352 5.90234 36.0352 6.73438C36.0352 7.73047 35.4141 7.74219 30.5742 7.74219V10.4961C35.4141 10.4961 36.0352 10.4844 36.0352 11.5039C36.0352 12.3359 35.0156 12.7109 32.707 12.7109C30.3047 12.6758 28.3477 12.7461 28.3711 11.0703H22.2188C22.2188 16.3203 26.3555 17.375 32.4609 17.375C38.6367 17.375 42.1992 15.8398 42.1992 12.5586C42.1992 10.9766 41.2969 9.86328 39.7031 9.11328C41.2969 8.36328 42.1992 7.26172 42.1992 5.67969ZM49.5938 1.26172H42.6797L50.7422 17.0117H58.043L66.1172 1.26172H59.2031L54.3984 12.1953L49.5938 1.26172ZM66.5859 17.0117H85.0195V12.9688H72.7266V10.9531H85.0195V7.30859H72.7266V5.29297H85.0195V1.26172H66.5859V17.0117ZM88.2891 1.25V17H94.4297V13.1562H99.9141L102.879 17H109.418L105.984 12.582C107.016 12.1016 107.848 11.375 108.469 10.4258C109.102 9.46484 109.418 8.38672 109.418 7.20312C109.465 3.94531 106.711 1.21484 103.465 1.25H88.2891ZM101.918 5.85547C102.668 5.85547 103.266 6.45312 103.266 7.20312C103.266 7.56641 103.137 7.88281 102.867 8.15234C102.609 8.41016 102.293 8.53906 101.918 8.53906H94.4297V5.85547H101.918ZM117.316 6.42969C117.316 5.17578 119.66 4.89453 121.57 4.89453C123.492 4.89453 125.121 5.1875 125.824 6.42969H132.258C131.672 1.50781 127.09 0.886719 121.57 0.851562C116.039 0.851562 110.883 1.92969 110.883 6.42969C110.871 10.3672 117.047 10.6719 121.441 10.8945C123.914 11.0117 125.824 11.1172 125.824 11.8086C125.824 13.0273 123.48 13.3438 121.57 13.3438C119.648 13.3438 118.02 13.0273 117.316 11.8086H110.883C111.469 16.6953 116.051 17.3633 121.57 17.375C127.102 17.375 132.258 16.3086 132.258 11.8086C132.27 7.85938 126.094 7.55469 121.699 7.33203C119.227 7.21484 117.316 7.12109 117.316 6.42969ZM133.898 17.0117H152.332V12.9688H140.039V10.9531H152.332V7.30859H140.039V5.29297H152.332V1.26172H133.898V17.0117Z" fill="white"/>
</svg>
